# xmcd CD database file
#
# Track frame offsets:
#	150
#	16063
#	30422
#	46370
#	61479
#	76571
#	91570
#	100831
#	116595
#	130814
#	145699
#	160504
#	175762
#
# Disc length: 2550 seconds
#
# Revision: 0
# Processed by: cddbd v1.5.2PL0 Copyright (c) Steve Scherf et al.
# Submitted via: CDex 1.70beta2
#
DISCID=8909f40d
DTITLE=Hootie and The Blowfish - Imperfect Circle
DYEAR=2019
DGENRE=Country
TTITLE0=New Year's Day
TTITLE1=Miss California
TTITLE2=Wildfire Love (feat. Lucie Silvas)
TTITLE3=Hold On
TTITLE4=Turn It Up
TTITLE5=Not Tonight
TTITLE6=We Are One
TTITLE7=Everybody But You
TTITLE8=Lonely On A Saturday Night
TTITLE9=Why
TTITLE10=Rollin'
TTITLE11=Half A Day Ahead
TTITLE12=Change
EXTD=YEAR: 2019
EXTT0=
EXTT1=
EXTT2=
EXTT3=
EXTT4=
EXTT5=
EXTT6=
EXTT7=
EXTT8=
EXTT9=
EXTT10=
EXTT11=
EXTT12=
PLAYORDER=
